/* XPM */
static char *_472839838b04ba2d275083c047a8a07[] = {
/* columns rows colors chars-per-pixel */
"64 64 256 2 ",
"   c black",
".  c #0000A8",
"X  c #00A800",
"o  c #00A8A8",
"O  c #A80000",
"+  c #A800A8",
"@  c #A85400",
"#  c gray66",
"$  c gray33",
"%  c #5454FC",
"&  c #54FC54",
"*  c #54FCFC",
"=  c #FC5454",
"-  c #FC54FC",
";  c #FCFC54",
":  c gray99",
">  c #ECECEC",
",  c gainsboro",
"<  c #D0D0D0",
"1  c #C0C0C0",
"2  c #B4B4B4",
"3  c gray66",
"4  c #989898",
"5  c gray55",
"6  c #7C7C7C",
"7  c gray44",
"8  c #646464",
"9  c gray33",
"0  c #484848",
"q  c gray22",
"w  c #2C2C2C",
"e  c #202020",
"r  c #FC0000",
"t  c #EC0000",
"y  c #E00000",
"u  c #D40000",
"i  c #C80000",
"p  c #BC0000",
"a  c #B00000",
"s  c #A40000",
"d  c #980000",
"f  c #880000",
"g  c #7C0000",
"h  c #700000",
"j  c #640000",
"k  c #580000",
"l  c #4C0000",
"z  c #400000",
"x  c #FCD8D8",
"c  c #FCB8B8",
"v  c #FC9C9C",
"b  c #FC7C7C",
"n  c #FC5C5C",
"m  c #FC4040",
"M  c #FC2020",
"N  c #FC0000",
"B  c #FCA85C",
"V  c #FC9840",
"C  c #FC8820",
"Z  c #FC7800",
"A  c #E46C00",
"S  c #CC6000",
"D  c #B45400",
"F  c #9C4C00",
"G  c #FCFCD8",
"H  c #FCFCB8",
"J  c #FCFC9C",
"K  c #FCFC7C",
"L  c #FCF85C",
"P  c #FCF440",
"I  c #FCF420",
"U  c #FCF400",
"Y  c #E4D800",
"T  c #CCC400",
"R  c #B4AC00",
"E  c #9C9C00",
"W  c #848400",
"Q  c #706C00",
"!  c #585400",
"~  c #404000",
"^  c #D0FC5C",
"/  c #C4FC40",
"(  c #B4FC20",
")  c #A0FC00",
"_  c #90E400",
"`  c #80CC00",
"'  c #74B400",
"]  c #609C00",
"[  c #D8FCD8",
"{  c #BCFCB8",
"}  c #9CFC9C",
"|  c #80FC7C",
" . c #60FC5C",
".. c #40FC40",
"X. c #20FC20",
"o. c #00FC00",
"O. c #00FC00",
"+. c #00EC00",
"@. c #00E000",
"#. c #00D400",
"$. c #04C800",
"%. c #04BC00",
"&. c #04B000",
"*. c #04A400",
"=. c #049800",
"-. c #048800",
";. c #047C00",
":. c #047000",
">. c #046400",
",. c #045800",
"<. c #044C00",
"1. c #044000",
"2. c #D8FCFC",
"3. c #B8FCFC",
"4. c #9CFCFC",
"5. c #7CFCF8",
"6. c #5CFCFC",
"7. c #40FCFC",
"8. c #20FCFC",
"9. c #00FCFC",
"0. c #00E4E4",
"q. c #00CCCC",
"w. c #00B4B4",
"e. c #009C9C",
"r. c #008484",
"t. c #007070",
"y. c #005858",
"u. c #004040",
"i. c #5CBCFC",
"p. c #40B0FC",
"a. c #20A8FC",
"s. c #009CFC",
"d. c #008CE4",
"f. c #007CCC",
"g. c #006CB4",
"h. c #005C9C",
"j. c #D8D8FC",
"k. c #B8BCFC",
"l. c #9C9CFC",
"z. c #7C80FC",
"x. c #5C60FC",
"c. c #4040FC",
"v. c #2024FC",
"b. c #0004FC",
"n. c #0000FC",
"m. c #0000EC",
"M. c #0000E0",
"N. c #0000D4",
"B. c #0000C8",
"V. c #0000BC",
"C. c #0000B0",
"Z. c #0000A4",
"A. c #000098",
"S. c #000088",
"D. c #00007C",
"F. c #000070",
"G. c #000064",
"H. c #000058",
"J. c #00004C",
"K. c #000040",
"L. c #282828",
"P. c #FCE034",
"I. c #FCD424",
"U. c #FCCC18",
"Y. c #FCC008",
"T. c #FCB400",
"R. c #B420FC",
"E. c #A800FC",
"W. c #9800E4",
"Q. c #8000CC",
"!. c #7400B4",
"~. c #60009C",
"^. c #500084",
"/. c #440070",
"(. c #340058",
"). c #280040",
"_. c #FCD8FC",
"`. c #FCB8FC",
"'. c #FC9CFC",
"]. c #FC7CFC",
"[. c #FC5CFC",
"{. c #FC40FC",
"}. c #FC20FC",
"|. c #FC00FC",
" X c #E000E4",
".X c #C800CC",
"XX c #B400B4",
"oX c #9C009C",
"OX c #840084",
"+X c #6C0070",
"@X c #580058",
"#X c #400040",
"$X c #FCE8DC",
"%X c #FCE0D0",
"&X c #FCD8C4",
"*X c #FCD4BC",
"=X c #FCCCB0",
"-X c #FCC4A4",
";X c #FCBC9C",
":X c #FCB890",
">X c #FCB080",
",X c #FCA470",
"<X c #FC9C60",
"1X c #F0945C",
"2X c #E88C58",
"3X c #DC8854",
"4X c #D08050",
"5X c #C87C4C",
"6X c #BC7848",
"7X c #B47044",
"8X c #A86840",
"9X c #A0643C",
"0X c #9C6038",
"qX c #905C34",
"wX c #885830",
"eX c #80502C",
"rX c #744C28",
"tX c #6C4824",
"yX c #5C4020",
"uX c #543C1C",
"iX c #483818",
"pX c #403018",
"aX c #382C14",
"sX c #28200C",
"dX c #600064",
"fX c #006464",
"gX c #006060",
"hX c #00001C",
"jX c #00002C",
"kX c #302410",
"lX c #480048",
"zX c #500050",
"xX c #000034",
"cX c gray11",
"vX c #4C4C4C",
"bX c gray36",
"nX c gray25",
"mX c gray19",
"MX c #343434",
"NX c #D8F4F4",
"BX c #B8E8E8",
"VX c #9CDCDC",
"CX c #74C8C8",
"ZX c #48C0C0",
"AX c #20B4B4",
"SX c #20B0B0",
"DX c #00A4A4",
"FX c #009898",
"GX c #008C8C",
"HX c #008484",
"JX c #007C7C",
"KX c #007878",
"LX c #007474",
"PX c #007070",
"IX c #006C6C",
"UX c #980088",
/* pixels */
"L.q iXmXe mXmXe e L.q nXnXnX$ vX$ $ $ $ $ bXbXnXnXnXnXq iXnXnXnX$ 7 bX$ q cXL.q $ nX$ $ bX$ $ bX$ $ bXbXnXnXbXmXmXq mXq q q nXmX",
"cXe nXq kXe e e e e L.mXq q q nXnXnXnXnX$ bXmXL.mXe e L.L.L.mXe L.mXmXmXL.e sXL.mXL.mXq nX$ nX$ nXbX$ rXnXmXpXcXL.mXe e L.L.nXmX",
"q cXe iXq cXsXe cXcXcXcXcXcXcXcXcXcXe L.L.L.cXcXcXcXcXcXcXcXcXcXcXcXe L.e cXcXcXcXe e L.cXe $ nX$ yXbXbXq sXe pXq rX$ rX$ bXbXbX",
"bX$ cXcXL.L.cXcXcXcXcXcXcXcXcXcXcXcXcXcXcXcXcXcXL.q q nXnXvXnXnXq q nXnXnXq q q q nXnX$ mXcXe $ $ nXnXpXcXe nX$ qX7 7 6 6 6 qXbX",
"7 7 mXL.e q yXnXnXnXq nXnXq q kXmXkXmXmXcXcXcXcXcXe e mX$ $ eXbX7 7 $ $ bX6 7 bXbXbXbXbX7 L.cXL.mXmXmXcXsXe wX6 7 $ bXrX$ bXbXbX",
"bX7 mX$ 7 $ 6 7 7 7 bX6 7 bX$ bXbXbX$ bXbXmXe e cXcXcXcXcXmXq nX$ $ nXnX$ nXL.L.L.L.L.iXL.kXcXcXcXcXcXcXL.uXmXq uX7 7 bX7 7 bXbX",
"6 7 L.mX7 wXbXbX$ $ bX$ $ bX$ nXq iXnXnXnXbXbXnXbXq e cXcXcXe L.iXL.e mXL.L.e cXcXcXcXcXq q mXmXpXmXuXmXvXmXcXcXcXq vXnX7 7 6 7 ",
"nXq cXmXL.q q uXq q mXq mXq mXpXmXL.nXiXq yXbXbXeX$ q rXL.cXcXcXcXcXiXmXcXcXL.mXmXq L.pXvXbX5X6 5 6 6 qX6 nXvXq mXcXcXcXmXq q vX",
"mXe e mXe cXcXcXcXcXL.L.pXcXe cXcXcXcXcXq $ bX$ rXnXiXsXmXcXcXcXsXe mXmXe cXsXq 6 $ wX6 6 8X6 6 7 qX6 6 6 7 6 6 6 $ cXL.L.L.L.e ",
"nX$ $ 7 6 mXe cXcXcXnXbX$ sXcXcXe cXcXcXe eXbXrXbXmXsXcXcXcXe L.e e mXmXmXmXmXe bX6 5 6 wX7 bX$ bX$ $ bXbXbXwX7 7 nXe q $ rX$ nX",
"$ 6 6 6 6 6 6 $ cXcXL.7 q L.mXpXcXsXmXsXmXL.uXq iXL.cXcXcXcXq $ nXnX$ bXbX6 nXe L.$ 7 7 bX$ 7 eX$ $ $ nXyXnXnXnXvXvXL.q $ 6 7 7 ",
"$ bX$ nX7 bX6 6 $ cXcXcXcXe q bXmXcXq q uXL.L.e e cXiXnX$ $ eX7 6 7 6 6 6 6 6 nXe L.uXq q eXbX$ nXnX$ $ $ $ $ L.mXL.cXq 7 7 7 7 ",
"$ $ $ $ $ bX$ bX6 q cXcXcXq bX$ bXmXmXrX7 qXeXbXrXnXwX$ rXq rX$ eX$ bXbXbXbXbXbXmXL.L.e cXe pXL.mXL.L.mXmXmXq cXL.e e $ 7 7 7 7 ",
"nX$ nX$ $ $ bXbXbX6 nXcXcXbXbXuXL.cXbXbX7 7 7 qX6 wXbXnXiXL.iXmXmXmXiXq q vXnXvXmXq nXq sXcXcXcXcXcXe e cXe cXe q $ $ bXnXuX7 nX",
"nX$ $ $ $ 7 7 7 bXbXnXe cXmXL.e cXcXL.q iXmXq $ mXmXmXL.cXcXL.mXcXe cXL.L.e cXcXe q q mXmXmXcXe e e L.q q bXcXq 6 6 7 6 7 bX7 bX",
"$ $ nXnXbXbXbXbXbXbXnXL.cXcXcXe cXcXmXL.e e cXmXq e e e L.cXcXq L.uXL.iXq cXe L.e bX$ 7 bXqX6 6 7 6 q mXe mXL.mX7 $ $ nXnX$ $ $ ",
"nXnXbXnX$ $ $ bXbX$ nXcXcXL.L.q nXbX7 $ rXnX$ $ bXnXrXnXrXq q pXmX6 qXmXuXmXmX6 6 5 5 6 7 6 6 6 6 6 7 $ mXe e cXe $ nXnX$ $ $ $ ",
"mXmXmXe L.mXmXmX$ $ nXe mXbX7 7 7 6 wXbX7 bX7 8XbXwXrXeXwXwX$ q uXeX6 rXyXeXyXq $ bXrXnXnXbXbXbX$ $ $ 7 7 7 $ q cXnXbX$ yXnX$ $ ",
"e e cXcXcXcXcXcXe iXq iX7 7 7 7 bXwX7 7 bX$ eX7 rXnXrXvXiXq rXuX$ bXsXvXqX5XqXe e sXe mXnX$ $ $ $ nXL.mXmXq yXmXpXcXq q mXmXmXq ",
"L.mXL.e cXcXe L.pXe cXe bX6 rX$ eXbX7 bX$ rXrXrX$ eXyXq rXyXq mXq sXcXcX$ $ qXvXcXcXmXe cXmXL.L.L.L.cXcXcXe e cXL.mXe cXe e e L.",
"$ 7 bX$ mXcXrX6 5 yXe cXL.iXnXnX$ $ $ $ $ yXe mXq q yXrX$ rXrXiXe cXcXcXL.cXq mXsXcXcXcXcXcXcXcXcXcXcXcXcXL.uXiXuXwXbX7 7 rXyXnX",
"rXbXq bX6 kX$ qXwXbXiXcXcXcXmXnXnX$ eXbXbX$ q mXkXkXmXnXnXnXq q e cXcXsXcXcXe cXcXcXcXL.sXe q cXe cXcXsXe mXyXrXeXqX8X6 8XqX6 6 ",
"vXyXyXeXrXmXyXwXq cXL.mXcXcXcXe nXvX$ bXbXbX$ nXq mXmXmXnXnXnXe cXcXsXL.pXe q kXmXsXcXsXe sXq sXkXpXiXsXmXkXq mXiXpXuXeXbXwXrXyX",
"iXuXuXe mXe uXnXcXcXcXcXsXsXcXcXe mXq mXq q q q mXL.sXcXe e cXe cXmXbXq L.e vXq q q e cXcXcXe cXcXe e e e e cXe mXL.kXmXiXe mXmX",
"e L.e cXe cXcXsXcXsXL.mXmXpXyXsXcXL.L.L.mXL.mXcXcXcXL.cXcXcXcXcXmX$ bX$ mXcXmXq q q mXmXcXcXcXcXcXsXcXcXcXe cXcXe mXe e e cXcXsX",
"cXcXcXcXcXcXpXmXL.q bXbXbX7 $ yXbXbXbXbXbXbX7 nXmXcXnX$ bXnXq L.pXq nXq L.mXkXL.mXq L.mXq L.cXcXcXcXcXsXcXcXcXcXcXcXe e cXcXcXcX",
"cXcXcXL.cXe 7 6 uXyX$ nXnXnX$ $ 7 6 wX7 6 5 5 5 nXmXnX7 6 bXbX$ kXq nXnXq mXcXpXmXmXq mXq $ sXcXcXcXcXcXcXcXsXsXcXcXcXcXcXcXe L.",
"cXcXmXpXcXq 6 8XnXq vXiXq nX$ $ $ nXnXuXnXbXbX7 nXmXnXbX$ bX$ nXnXnX$ $ vXq mXq mXnXnXnXq mXsXe cXcXcXsXcXcXsXcXe e cXcXe cXcXe ",
"cXcXe cXcXsXyXmXsXcXsXe mXe L.mXq q mXq q mXq q q e mXq q mXq L.mXmXmXmXL.e L.L.L.L.e e cXcXcXcXkXvXrXq q sXsXpXsXe sXcXcXsXmXcX",
"mXq e mXe sXmXcXcXcXsXe e cXcXcXcXL.L.L.L.mXmXL.L.L.mXL.L.L.e mXcXe e e cXcXcXcXcXcXcXcXcXcXe q bXbX$ vX$ kXuXq e e pXcXcXcXe L.",
"mXq mXq q $ 6 pXcXcXcXcXsXcXcXpXe q bX$ $ bXbXbX$ $ 6 bX$ bXbX$ vXiXvXnXe cXcXcXcXcXcXcXcXsXe mXyXrXmXmXiXcXpXuXuXe vXsXvXcXcXmX",
"mXmXmXmXq bXrX$ uXsXcXsXsXcXkX$ bXbX7 6 6 7 5 6 7 7 5 6 6 6 6 6 wX$ eX$ $ yXmXsXcXkXeXyXq pXL.e mXsXq uXsXe q sXcXe mXq e cXe mX",
"mXL.mXq nXnXrXnXeXrXcXcXcXcXsXpXbXbX7 bX$ eXbX$ bX$ 7 bX7 bXbXbXrX$ $ q mXq mXcXcXL.q q iXiXkXL.e mXL.L.e cXcXe L.cXcXe cXcXL.mX",
"cXcXcXe L.mX$ bXnXmXcXcXL.mXkXmXiXnX$ $ nXbX$ rXbXbXbX7 bXbXbX$ rXnXnXq mXL.L.e cXsXcXe q uX$ vXq uXe kXL.cXcXcXcXcXcXcXcXcXcXcX",
"e e e cXcXe L.mXq e cXsXkXL.e e cXuXbXrXeX$ 7 7 $ rXrXrX$ eXbXbXnXnX$ $ q mXL.cXL.e cXcXcXsXsXsXq nXsXcXe cXcXcXcXcXcXcXcXcXcXcX",
"uXnXq cXcXcXe cXcXcXcXe cXcXcXcXL.pXq eXbX$ $ rXnXuXq rX$ $ rX$ $ bXq q q L.mXcXvXbXe cXcXcXsXcXe cXcXcXcXsXcXcXcXcXcXcXcXcXcXe ",
"mXmXiXmXe e cXcXcXcXcXcXcXcXcXcXcXcXe L.mXL.e e mXcXe e e e L.L.mXmXe cXe cXmXvXbXbX7 mXL.e cXcXcXcXe e e cXcXcXq mXkXL.vXL.cXcX",
"cXcXcXL.cXcXcXcXcXcXcXcXcXcXcXcXcXcXcXcXsXe cXcXcXe cXcXcXcXcXcXcXcXcXyX$ $ $ 7 7 $ nXbXnXnXcXcXcXe sXkXvXpXkXL.mXmXL.L.$ bXmXcX",
"e cXcXcXcXcXsXcXcXmXq q sXkXe sXsXcXe cXcXe cXcXcXcXmX$ nXq e e nXcXpXwX7 bX7 $ $ $ $ nXbXnXpXe sXe q kXkXe sXe mXnXq mXq q $ e ",
"nXq nXcXcXe q q iX$ vXq q q pXmXq q q kXsXmXkXpXyXvXuXrX$ q yXmXkXsXmXq L.mXvXqX7 bXrXbXbXnXcXL.q rX$ nXq nXcXe L.q q $ $ $ nXbX",
"L.L.e cXcXsXmXq mXnXnXnXmXmXmXiXuXq iXsXsXe uXbXrXrXq yXyXiXmXuXcXcXkXe cXcXrX6 5 7 bXwXbXnXe e iX6 eXvXq vXnXL.e mXmXmX$ vXnXL.",
"e cXcXcXcXcXcXcXcXcXe L.mXcXe L.iXmXe sXsXe pXpXcXsXq yXq iXiXuXpXcXe cXcXcXnXvXvXvXnXmXpXiXcXL.mXiXnXiXq q q L.cXe cXe L.mXq cX",
"nXq uXe sXcXcXe cXcXcXcXcXcXcXe mXpXmXiXsXq sXcXe cXe L.sXe e cXsXe sXcXcXcXe cXcXcXe e e L.e L.sXe cXL.e e e e cXcXcXcXcXcXcXe ",
"mX$ q yXcXcXq bXnXnX$ nXq q uXbX8XbXwXyX$ eXq q q q mXcXcXcXcXe cXcXsXcXe q kXq pXq uXnXnX$ rXvXuXe cXL.nXyXnXnXnXnXq e cXe nXnX",
"nXq yXq cXcXq 7 7 7 7 7 bX$ yXrXrXrXyXrXbXbXwX$ 7 bXmXe e cXsXq yX$ $ iXe kXpXiX$ $ bXrX$ bXbXrX$ sXsXpXbXq bXbX$ yXiXmXcXmXq q ",
"cXmXvXnXcXe q $ vX$ $ q $ pXe e e mXuXyXiXiXL.iXq iXsXsXsXyXpXuXmX$ $ q e e e mXe kXmXnXuXnXrXq rXuXcXsXsXmXe e L.e cXcXcXL.mXe ",
"cXcXcXsXcXe mXL.$ $ mXmXpXe cXcXe e e L.sXL.mXe mXsXcXcXcXe iXmXsXcXcXe e e mXpXmXkXe L.q $ q iXnXrXsXcXL.e cXcXcXcXcXcXcXL.cXcX",
"cXcXcXcXcXsXe cXcXe e cXcXe q nXvX$ $ rXnXrX$ vX$ uXvXpXvXe L.e cXe cXcXmXmXpXmXpXmXpXe iXuXiXnXq vXsXsXpXmXkXq kXmXmXe pXiXL.e ",
"mXyXL.pXq iXe nXL.e cXcXe e q $ $ 7 wX7 bX7 6 6 7 7 nXmXrXmXe cXcXcXcXcXcXe cXe e cXcXe cXcXsXsXe pXcXcXsXkXq yXq iXvX$ uXpXkXpX",
"q yXuXq uXq e q bXnXmXsXL.cXcXe e L.q mXq yXnXq q iXe q uXmX$ yX$ q yXcXsXcXcXcXcXcXcXcXcXcXcXcXcXcXcXpXq sXe mXq q nXyXq pXmXe ",
"$ $ bXnXmXe mXcXkX7 rXmXmXcXcXcXe L.mXpXcXcXcXe cXe e q 6 rX7 bXbXrX$ q kXcXcXe e e e sXe e cXcXe cXe yXrXe q q q nXnXvXq q vXq ",
"$ bX7 wXq iXmXq q mXq e yXe sXnXbXuXL.e e cXcXL.uXnX$ rXbX7 7 rXnXuXe e uXuXsXe iXe pXuXuXeX$ rXmXsXq vXnXnXiX$ nXq nXnX$ $ $ 7 ",
"mXmXmXeXL.e sXcX$ $ mXvXyXmXq pXpXL.sXe uX$ $ bXbXeXbXbXbXeX$ bXbXnXvXrXq e pXsXcXsXmXpXuXq uXpXbXpXmXL.cXe mXq nXnXnXnXnXnX$ $ ",
"nXL.L.mXyXmXmXe mXnXcXsXe cXuXcXcXcXq iXnXeXeXbX$ nXuXyXbXbXbX$ $ nXnXnXnXe iXpXsXcXe pXpXpXcXe nXL.mXmXcXcXcXe L.L.L.mXq nXq q ",
"7 bXbX$ bXuXyXnXpXmXcXcXcXcXcXL.cXcXe pXuXL.L.mXiXL.iXq q iXL.mXmXq mXL.e mXpXcXsXcXcXcXe sXcXcXL.cXe L.mXmXL.L.L.L.L.L.L.L.L.L.",
"bX6 6 6 vXmXyX$ wX7 bXbXL.cXcXcXsXe cXcXcXcXcXcXe cXL.cXcXcXmXe e L.e L.e mXmXe cXsXsXsXsXsXsXcXcXcXq rX$ 7 6 6 bX7 bX7 $ $ $ bX",
"$ bXbXq e L.nXeX6 8X7 7 bX$ pXsXcXmXe cXe cXcXe cXnXiXe e e nXbX$ $ $ $ bXbX7 7 L.sXsXcXsXsXcXcXcXcXrX7 7 7 6 6 5 5 5 5 6 6 7 7 ",
"$ $ q e e nX7 qX$ $ $ $ $ nX$ e pXiXeX$ rXbX7 bXq mXpXmX$ 7 7 wX6 6 6 7 7 6 7 7 7 q sXsXsXcXkXmXL.cXmXiXeXvXbXbXbXbX7 bXbXeXbXnX",
"mXiXq cXnXqX6 bXwX$ vX$ bXbX$ q uXmXL.uXq $ bXrXrXsXcXmXbXrX6 $ $ $ bXbXbXbX$ nXnXyX$ e cXsXL.7 6 q L.cXe uXL.L.nX$ bXbXbX$ bXbX",
"iXe q sXuX7 rXrXbXnXvX$ bXbX$ bX$ $ q e kXmXiXmXiXkXcXkXmXL.mXiXq q q q q mXmXL.L.sXL.e sXsXcXsXmXvXyXcXcXe mXcXcXe L.mXmXe L.pX",
"q nXrXq kXuXuXeXnXnXbXbX$ $ $ $ nX$ $ nXyXmXq q uXcXe sXcXcXcXcXcXcXcXL.mXL.cXcXcXcXcXcXcXL.mXcXsXcXsXkXsXcXiXyXcXcXcXcXcXcXcXcX",
"mXq 7 nXuXe e mXmXnX$ bX$ nX$ nX$ $ $ vXrXq mXkXiXe L.cXcXcXcXe cXL.mXnXq q e e cXe cXcXmXbXbXnXnXnXq q cXsXmXeX$ q q mXkXL.kXmX",
"kXmXnX$ wXpXe cXcXcXq q q mXmXmXL.mXmXmXq L.e sXe cXcXcXcXmX$ 7 6 7 7 6 q e e q 6 6 7 bX7 6 6 7 7 7 bXuXmXcXL.nXrXbXwX7 $ $ iXiX",
"iXmXcXL.iXmXe L.mXL.L.L.L.L.L.e e e cXe L.cXcXcXcXcXcXcXcXmXbX7 6 5 7 6 $ cXL.bX6 7 6 7 7 bXbX$ nXnXnXmXq bXwX$ $ $ $ $ vXnXq iX"
};
