/* XPM */
static char *dacb76fa56b84ae0f2bf73eff826688c[] = {
/* columns rows colors chars-per-pixel */
"64 64 256 2 ",
"   c black",
".  c #0000A8",
"X  c #00A800",
"o  c #00A8A8",
"O  c #A80000",
"+  c #A800A8",
"@  c #A85400",
"#  c gray66",
"$  c gray33",
"%  c #5454FC",
"&  c #54FC54",
"*  c #54FCFC",
"=  c #FC5454",
"-  c #FC54FC",
";  c #FCFC54",
":  c gray99",
">  c #ECECEC",
",  c gainsboro",
"<  c #D0D0D0",
"1  c #C0C0C0",
"2  c #B4B4B4",
"3  c gray66",
"4  c #989898",
"5  c gray55",
"6  c #7C7C7C",
"7  c gray44",
"8  c #646464",
"9  c gray33",
"0  c #484848",
"q  c gray22",
"w  c #2C2C2C",
"e  c #202020",
"r  c #FC0000",
"t  c #EC0000",
"y  c #E00000",
"u  c #D40000",
"i  c #C80000",
"p  c #BC0000",
"a  c #B00000",
"s  c #A40000",
"d  c #980000",
"f  c #880000",
"g  c #7C0000",
"h  c #700000",
"j  c #640000",
"k  c #580000",
"l  c #4C0000",
"z  c #400000",
"x  c #FCD8D8",
"c  c #FCB8B8",
"v  c #FC9C9C",
"b  c #FC7C7C",
"n  c #FC5C5C",
"m  c #FC4040",
"M  c #FC2020",
"N  c #FC0000",
"B  c #FCA85C",
"V  c #FC9840",
"C  c #FC8820",
"Z  c #FC7800",
"A  c #E46C00",
"S  c #CC6000",
"D  c #B45400",
"F  c #9C4C00",
"G  c #FCFCD8",
"H  c #FCFCB8",
"J  c #FCFC9C",
"K  c #FCFC7C",
"L  c #FCF85C",
"P  c #FCF440",
"I  c #FCF420",
"U  c #FCF400",
"Y  c #E4D800",
"T  c #CCC400",
"R  c #B4AC00",
"E  c #9C9C00",
"W  c #848400",
"Q  c #706C00",
"!  c #585400",
"~  c #404000",
"^  c #D0FC5C",
"/  c #C4FC40",
"(  c #B4FC20",
")  c #A0FC00",
"_  c #90E400",
"`  c #80CC00",
"'  c #74B400",
"]  c #609C00",
"[  c #D8FCD8",
"{  c #BCFCB8",
"}  c #9CFC9C",
"|  c #80FC7C",
" . c #60FC5C",
".. c #40FC40",
"X. c #20FC20",
"o. c #00FC00",
"O. c #00FC00",
"+. c #00EC00",
"@. c #00E000",
"#. c #00D400",
"$. c #04C800",
"%. c #04BC00",
"&. c #04B000",
"*. c #04A400",
"=. c #049800",
"-. c #048800",
";. c #047C00",
":. c #047000",
">. c #046400",
",. c #045800",
"<. c #044C00",
"1. c #044000",
"2. c #D8FCFC",
"3. c #B8FCFC",
"4. c #9CFCFC",
"5. c #7CFCF8",
"6. c #5CFCFC",
"7. c #40FCFC",
"8. c #20FCFC",
"9. c #00FCFC",
"0. c #00E4E4",
"q. c #00CCCC",
"w. c #00B4B4",
"e. c #009C9C",
"r. c #008484",
"t. c #007070",
"y. c #005858",
"u. c #004040",
"i. c #5CBCFC",
"p. c #40B0FC",
"a. c #20A8FC",
"s. c #009CFC",
"d. c #008CE4",
"f. c #007CCC",
"g. c #006CB4",
"h. c #005C9C",
"j. c #D8D8FC",
"k. c #B8BCFC",
"l. c #9C9CFC",
"z. c #7C80FC",
"x. c #5C60FC",
"c. c #4040FC",
"v. c #2024FC",
"b. c #0004FC",
"n. c #0000FC",
"m. c #0000EC",
"M. c #0000E0",
"N. c #0000D4",
"B. c #0000C8",
"V. c #0000BC",
"C. c #0000B0",
"Z. c #0000A4",
"A. c #000098",
"S. c #000088",
"D. c #00007C",
"F. c #000070",
"G. c #000064",
"H. c #000058",
"J. c #00004C",
"K. c #000040",
"L. c #282828",
"P. c #FCE034",
"I. c #FCD424",
"U. c #FCCC18",
"Y. c #FCC008",
"T. c #FCB400",
"R. c #B420FC",
"E. c #A800FC",
"W. c #9800E4",
"Q. c #8000CC",
"!. c #7400B4",
"~. c #60009C",
"^. c #500084",
"/. c #440070",
"(. c #340058",
"). c #280040",
"_. c #FCD8FC",
"`. c #FCB8FC",
"'. c #FC9CFC",
"]. c #FC7CFC",
"[. c #FC5CFC",
"{. c #FC40FC",
"}. c #FC20FC",
"|. c #FC00FC",
" X c #E000E4",
".X c #C800CC",
"XX c #B400B4",
"oX c #9C009C",
"OX c #840084",
"+X c #6C0070",
"@X c #580058",
"#X c #400040",
"$X c #FCE8DC",
"%X c #FCE0D0",
"&X c #FCD8C4",
"*X c #FCD4BC",
"=X c #FCCCB0",
"-X c #FCC4A4",
";X c #FCBC9C",
":X c #FCB890",
">X c #FCB080",
",X c #FCA470",
"<X c #FC9C60",
"1X c #F0945C",
"2X c #E88C58",
"3X c #DC8854",
"4X c #D08050",
"5X c #C87C4C",
"6X c #BC7848",
"7X c #B47044",
"8X c #A86840",
"9X c #A0643C",
"0X c #9C6038",
"qX c #905C34",
"wX c #885830",
"eX c #80502C",
"rX c #744C28",
"tX c #6C4824",
"yX c #5C4020",
"uX c #543C1C",
"iX c #483818",
"pX c #403018",
"aX c #382C14",
"sX c #28200C",
"dX c #600064",
"fX c #006464",
"gX c #006060",
"hX c #00001C",
"jX c #00002C",
"kX c #302410",
"lX c #480048",
"zX c #500050",
"xX c #000034",
"cX c gray11",
"vX c #4C4C4C",
"bX c gray36",
"nX c gray25",
"mX c gray19",
"MX c #343434",
"NX c #D8F4F4",
"BX c #B8E8E8",
"VX c #9CDCDC",
"CX c #74C8C8",
"ZX c #48C0C0",
"AX c #20B4B4",
"SX c #20B0B0",
"DX c #00A4A4",
"FX c #009898",
"GX c #008C8C",
"HX c #008484",
"JX c #007C7C",
"KX c #007878",
"LX c #007474",
"PX c #007070",
"IX c #006C6C",
"UX c #980088",
/* pixels */
"w MXnXnXq L.nXq 8 $ 8 6 8 6 5 6 5 5 6 5 6 vXnXw e w MXnX7 8 vX$ 5 $ 8 MXe L.L.MXnX$ 8 6 5 4 5 4 # 4 6 $ nXmXw q $ nXnXq MXL.L.L.",
"q vX7 5 8 nXq $ $ 8 6 8 8 5 4 4 5 5 5 7 8 $ q e mXq nXvX6 vXvX8 7 7 nXe L.w L.MX$ 8 7 4 4 6 4 5 5 6 6 $ vXMXnX7 $ 6 6 6 nXq w mX",
"7 $ 6 5 6 nXvXvX6 6 7 $ 6 5 5 6 5 5 6 8 vXnXq nXnX$ $ $ nXvXvXvX$ nXe L.L.L.L.mXvX6 5 6 5 5 4 5 8 6 0 7 nX$ $ 6 4 # 5 6 6 8 vXnX",
"$ $ 8 5 7 nX8 5 5 5 8 nXvX8 5 5 6 bX$ vXnXq vX7 4 5 4 8 vXnXnXq nXmXL.L.L.L.L.w $ 8 6 6 6 5 4 5 6 8 7 q MXvX0 $ 7 8 6 5 6 5 6 7 ",
"vX8 vXvXvXvXnX8 5 6 8 vXnXvX$ $ vXq q nXmXMX$ $ 6 # 4 5 8 $ nXMXL.w w w L.e e L.q 8 $ vXnX$ 8 8 vX$ q mXmXq 8 vX5 vX7 5 4 6 7 nX",
"q nXnXMX$ vXnXnX6 6 vXnXnX0 nXvXnXnXw L.L.w MXvX8 4 # 4 8 8 7 MXe L.vXw L.e e L.w w MXMXq $ vX$ q w w mXq vXvXvX6 4 8 7 4 $ 5 nX",
"mXL.e w MX8 $ vX8 8 nX$ 7 # < 4 nXnXq L.L.L.w q 8 6 4 6 6 $ 8 nXe e e w w w w w w w L.L.mXq q mXw e L.q 8 8 nXvXbX7 4 8 7 8 5 7 ",
"w e e L.w q nXnX8 $ 8 6 , # , # 4 5 nXnXMXL.w q vX8 6 6 6 5 8 nXe e L.MXnXnXnXnXnXnXnXq L.mXw L.w MXnXnX6 4 $ nXnXbX7 $ nXvXnXnX",
"q mXmXw w w MXvX$ 7 8 2 1 2 # 1 # 5 4 5 nXMXmXq vX8 5 6 7 5 8 nXMXe mXnX7 5 4 5 5 8 8 nXnXq mXmXq $ 6 4 5 4 4 vX0 0 bXbXq nX$ q ",
"$ 8 nXnXmXL.mXnXnX6 7 # # 4 4 # # 6 6 5 5 vXq nX$ 7 6 6 5 6 8 8 nXmXMXvX$ 6 6 6 4 5 7 8 8 nXvXMXnX$ 8 7 6 4 4 4 8 bX0 nXvXvXvX6 ",
"8 8 nXnXMXmXMX$ nXvX4 5 5 5 5 4 4 4 5 4 4 8 nXvX$ 8 7 7 $ 5 6 8 nXMXnXnXbX5 7 7 6 4 5 5 8 8 nXnXvX$ 7 7 7 5 2 1 # 6 $ vXvXnXnX7 ",
"4 4 7 nXnXnXq vXnXnX5 6 5 # # # 4 5 4 4 4 7 vXnX7 vXvXvXnX8 6 8 nXq nX8 6 4 5 4 5 6 6 4 5 8 vXvX$ 6 # # # # 4 # # # 6 $ 7 8 7 8 ",
"6 5 5 5 nXnXnXMXnX7 6 6 # # # 2 # # 4 # 4 5 6 nXq 8 nXvXvX$ $ nXMXMXvX8 6 4 6 5 4 # 6 5 5 6 4 $ 8 4 # 7 # # 1 1 # 1 6 7 6 6 5 5 ",
"# 4 4 4 6 nXnXnXnX6 5 4 # 5 # 1 < 4 4 4 4 5 5 q mXq $ nXnXnX8 nXL.L.vX8 7 8 6 4 6 # 4 5 7 2 4 $ vX6 # 4 # 6 4 1 1 4 6 5 4 4 4 4 ",
"5 4 4 4 4 5 vXq vX8 5 5 4 6 5 4 4 4 4 4 4 6 nXmXe q 8 nXq nXnXMXL.MX8 5 6 8 5 7 4 # 6 6 6 # 5 nXvXvX8 7 7 $ 7 5 6 7 5 4 4 4 5 5 ",
"4 4 5 5 5 5 vXnXq vX$ 6 4 5 7 7 7 7 7 6 6 6 q e mXnX8 nXnXvXvXMXL.MXvX7 7 6 6 6 5 4 6 7 5 # 6 $ nXnXnXnXnXvX$ 8 7 8 6 5 4 6 6 4 ",
"5 5 4 8 7 6 nXnXmXq $ vX7 7 7 $ $ $ $ 8 7 q L.L.q 6 6 6 $ 8 $ nXmXmXnX8 6 4 5 7 6 5 8 7 4 4 # 5 vXnXnXq nXq nXvX8 8 7 5 6 7 6 6 ",
"4 5 7 vXvXnXnXmXL.q $ $ 8 7 $ vX$ q nXnXq mXe mX7 5 5 6 5 6 $ nXmXL.q $ 5 5 5 8 5 4 7 5 5 5 < 5 vXnXq nXnXMXnXq nX$ 8 $ vXvX6 5 ",
"6 8 vXnXnXnXMXL.L.mX$ $ nXnX0 nXq mXmXe MXMXMXnXvX$ $ 6 6 5 $ $ nXL.mXvX8 5 4 6 4 4 5 $ vX8 4 4 8 nXmXmXmXmXw nXmXq vXvXq vX7 7 ",
"vXnXnXMXnXbXmXL.L.L.mXmXw 0 vX8 $ vXq q q 8 vX$ $ $ $ $ $ 6 7 $ nXmXL.q $ 8 6 4 5 5 8 7 $ 7 4 6 nXMXmXmXq q MXw L.L.mXMXq $ $ 7 ",
"nXMXmXnXmXmXL.L.L.e e mXnXvX6 # 5 6 5 nX8 7 $ $ $ 8 8 $ vXnXnXnXMXL.e mX$ vX7 5 4 6 6 6 7 6 5 8 nXnX$ 7 nX7 7 q mXL.e nXnXnXnXnX",
"mXL.L.mXMXL.L.e e e q $ 7 4 7 5 5 6 6 5 4 4 6 nXnXnXnXvXnXnXnXvXq e e mXMX8 6 8 6 8 7 7 8 7 6 8 nX4 4 < 4 4 8 0 8 q mXmXmXmXmXmX",
"e L.q 8 nXnXmXe L.q 6 6 4 5 5 6 7 6 5 # 4 4 5 vXmXq nX$ 7 nXnX8 nXnXnXmXe MXnX0 8 8 8 vX$ $ vXnX$ 4 4 1 1 < 4 5 5 7 mXL.e e e e ",
"e mX$ 6 6 $ nXmXMX8 5 5 6 5 5 vX$ 6 4 4 7 4 5 vXq nXvX7 4 5 6 1 5 5 8 nXmXe L.mXq $ vXvXnXnXmXq vXvX8 6 4 4 4 5 4 nXMXL.e e e L.",
"L.w nX6 5 $ nXe 8 8 4 # 4 4 7 8 8 5 5 4 6 # 5 nXvX6 8 8 5 4 4 4 6 5 5 8 q w L.L.mXmXMXmXmXL.L.q $ nX$ 8 5 5 4 4 6 nXMXL.e e e L.",
"e L.MX$ vXnXmXMX$ 7 4 4 # 5 4 6 # 4 5 6 5 # 5 nX$ 8 vX$ nX8 6 6 7 6 5 8 7 q L.w w L.e e e e mX$ 8 4 5 6 6 5 5 4 bX8 nXL.e e L.e ",
"e e e mXvXmXe MXvX6 4 1 4 # 6 7 4 5 4 6 4 # 6 $ vXL.mXMXnXvX8 7 6 5 7 5 5 q L.L.w L.e e e L.mXvX$ 4 < 4 6 6 6 5 $ nXMXL.L.w L.L.",
"mXL.e L.L.L.L.q 8 6 4 5 # 5 7 # 1 # 4 4 6 4 5 vXmXL.e L.nXnXvXnXvX7 8 $ nXmXe e L.e e e e e L.nXnX4 1 1 4 5 5 5 $ nXmXMXq nXnXq ",
"nXnXMXmXL.w mXnX5 5 5 4 # 4 6 # 2 5 6 5 5 5 5 vXL.e e e mXnXMXq vX$ 8 nXMXw e e e e mXMXMXmXMXq $ 8 4 4 5 4 5 7 8 nXmXq 5 7 8 $ ",
"8 8 6 nXmXmXmXnX5 4 6 4 4 5 # # 4 5 4 5 4 5 7 q L.e e MX0 vX0 nXnX6 nXnX8 MXL.e e mX0 5 nXnXnX8 8 8 $ 8 vXnX8 7 nXmXMX8 8 8 7 8 ",
"6 6 5 nXq MXmXnX6 5 6 5 5 # # 6 4 4 5 4 5 6 vXmXe e MX6 6 4 6 $ 8 6 $ $ nXnXmXmXmXnX6 4 5 5 5 1 4 # 5 8 vXq q $ mXL.nXnXvXnX7 7 ",
"4 5 4 6 nXMXw q vX5 5 6 5 6 4 # 5 5 8 7 6 7 MXe e e nX4 5 5 6 7 $ 6 6 6 $ $ nXq $ 8 5 4 # 4 # 4 # # 4 5 nXnXmXL.L.mXnXvXvX$ 7 6 ",
"5 4 5 7 nXq q nXnX8 5 5 6 8 8 7 6 vX8 8 nXnXmXL.e L.$ 6 7 6 6 $ nXnX7 5 6 $ nXnXvX8 5 4 4 5 4 4 # # # # 6 nXMXmXL.mXmX$ nXnX8 7 ",
"6 8 7 nXnXvXvXnXq nX8 7 $ nXnX$ $ $ vXq MXmXe L.e mXnXvXnXvX7 7 8 8 7 6 4 $ nXnXvXvX5 5 5 6 5 5 4 6 4 # 5 8 nXMXmXmXmXmXnXq vXvX",
"0 0 nX0 nXvXvXbXnXnXnX0 nXnXnXvX$ $ nXe L.w e L.e MXvX8 8 6 8 6 5 5 5 6 4 $ vXnXnX$ 5 6 4 4 4 5 5 # 4 # 6 6 nXq mXL.e L.L.MXnXnX",
"nXnX7 vXnXuX4 5 8 nX0 q nXnX8 7 6 6 nXe mXe e e e nXvX$ $ 7 7 5 6 5 4 5 5 6 5 8 vXvX6 4 4 5 5 4 # # # 5 6 5 7 nXmXe L.L.L.mXmXMX",
"L.q 8 vXvX$ 5 # 4 4 $ vXq nX7 4 4 4 5 7 q L.e e mXnXvXnXnX8 bX5 5 5 5 5 5 4 5 8 nX$ 6 5 5 6 5 5 5 4 5 4 4 7 7 nXmXe L.L.L.L.L.L.",
"e e mXvX$ # # 1 # 5 6 nXnXnX8 7 4 < 4 7 vXnXe w q $ $ nXnX7 7 7 5 4 5 5 6 7 vXvXnX$ 8 5 4 6 5 5 4 # # 5 4 6 8 nXmXL.L.L.L.L.L.L.",
"e e mXq $ 5 5 6 5 4 4 5 nXnX$ 8 5 < , 5 $ mXe mX8 6 8 nXvX7 7 7 6 5 5 6 6 8 $ vXvX$ nX7 4 5 6 6 4 4 # 4 6 6 8 nXmXL.L.L.L.L.L.e ",
"L.e L.vXnX8 7 $ vX6 4 4 vXnXnXnX8 4 , 5 nXmXL.q vX7 bXnXvX8 8 8 7 6 5 6 5 8 $ 8 6 5 vX7 5 4 5 5 # 4 4 4 # 4 8 nXmXL.L.L.e L.L.L.",
"mXL.e mXMXnXnXq nX7 4 6 $ nXq nXvX7 8 $ nXmXw nX$ 8 $ vXnX$ vXvX$ $ 8 6 8 7 vX7 4 5 6 6 5 6 5 5 # 5 4 5 5 4 8 nXmXL.L.L.mXmXMXnX",
"q mXL.L.L.L.L.mXvX5 # 4 nXvXq nX0 $ vX0 q q mXq nX7 8 $ nXnXnX$ 8 vXvX$ 8 q MXvX5 5 6 7 5 5 4 4 4 4 4 4 6 5 nXq L.L.L.nXnXvXvXvX",
"vXq MXmXw L.e L.nX6 # 5 vXnXnX$ 6 7 8 nXvXnXnXq nX7 6 8 $ 8 $ $ 7 $ vXvXMXL.L.L.$ 5 6 8 $ 8 7 5 6 7 7 6 5 7 nXmXmXmXnX$ $ 8 $ 7 ",
"7 vXmXvXMXmXL.L.q vX7 nXvX$ 5 5 6 4 6 5 4 $ 8 vXvXnX0 0 nXnXvXvXvXnXvXmXe e e L.L.8 8 $ 8 6 6 6 6 $ $ 6 5 7 nXmXmXvX$ 7 6 5 6 5 ",
"5 7 vXnX5 e mXL.mXnXvXvXnX6 5 6 6 7 4 7 6 4 5 4 $ vXnXnXq q $ $ nXvXL.L.e e e e mXq $ nX7 6 5 4 6 8 nX8 8 nXMXL.mXvX8 5 4 5 5 6 ",
"4 5 $ vXbX6 q e e e q nX0 $ 8 8 7 6 7 4 4 5 6 5 7 $ vXq mXMXnXnXMXmXL.e e e e e L.e mXq $ 7 6 6 8 vXnX$ $ mXe e mXnX6 5 6 7 5 5 ",
"6 5 7 nXnXvXvXL.L.L.mXvX8 7 $ 8 7 6 6 4 5 4 4 # 5 vXvXmXL.mXnXmXL.L.e L.L.L.e e L.e e mXnX8 $ vXvXnX$ 8 MXe e e mXnX6 6 5 5 4 5 ",
"4 4 6 $ nX8 nXmXL.nXmXnX7 6 $ vX$ 6 6 5 5 7 4 # 5 $ nXq mXw MXMXmXmXmXmXMXq MXe L.L.L.L.mX$ $ nXq nXnXMXmXL.e L.mXnX8 5 4 4 6 5 ",
"6 6 6 8 vX8 nXmXL.mXmXMXnX$ vXvX6 5 7 7 4 6 6 4 4 $ $ nXL.L.q 7 vXnX8 nXnX8 5 nXmXL.L.L.q 8 5 8 nXq mXL.L.L.L.L.mXq $ 5 5 5 4 6 ",
"6 8 6 nXnXnXmXmXnXL.L.L.q nXvXvX8 7 5 4 5 4 7 5 4 6 $ nXmXe e 6 5 7 6 5 6 8 7 7 nXMXmXL.q 8 4 6 8 nXnXmXL.L.w mXq nXnX$ 8 $ 7 6 ",
"6 $ vXnXnXmXmXmXmXw e L.MXnXnXnXnX8 5 6 5 6 6 5 4 4 $ $ MXL.MXnXvX5 5 5 6 4 5 8 8 nXnXmXq $ 4 5 5 5 7 nXMXmXq nXvX8 8 nXvXnX8 6 ",
"vXnX8 nXmXMXvXvXq mXw mXq bX$ nXnX$ 7 6 4 5 5 6 4 5 $ $ vXmXMX8 vX$ 7 8 5 6 4 4 5 8 8 nXL.8 $ 7 5 7 bX8 nX$ vX6 4 4 5 7 nXnXvX8 ",
"0 8 q q q vX8 6 7 nXMXnXq $ 7 8 nXnX8 7 4 5 6 4 4 5 5 8 nXnXnXq nX$ 6 7 5 6 4 6 7 4 8 $ q MXnXnXnX8 vXnXnX$ 5 5 4 1 < 4 6 vXvXvX",
"nXMXMXq 7 8 4 5 5 8 vXq MXnX8 7 nXq vX8 6 5 4 5 6 6 6 vXnXq vXMXq 8 7 7 5 5 5 4 5 4 8 nXq L.L.mXMXnX$ 8 6 8 8 5 4 # 1 1 4 $ nXnX",
"L.mXvXnXvX6 5 4 # 4 6 nXMXMXnX$ nXq nXnXbX6 4 6 8 8 8 vXnXMXq q nXvX8 7 4 4 6 5 6 5 8 8 nXe e L.L.mXvX$ 6 $ $ $ 8 5 1 , 1 6 nXMX",
"w w mXnX7 7 7 4 1 1 4 8 nXMXnXnXq q vXq nX6 4 4 7 6 vX$ MXMXnXnXnX8 8 7 5 5 6 4 7 5 6 8 nXw e L.L.w q 8 8 $ $ vX$ 8 4 1 < 4 vXmX",
"w L.L.nX6 5 8 6 # 1 , 5 $ nXnXq MXMXmXMXq nX8 5 8 7 $ q mXMXnXvX8 6 6 7 6 4 5 5 8 6 6 8 nXq mXmXw L.w q $ 6 6 7 $ $ 5 # # 5 vXnX",
"mXL.w nX7 6 $ $ 4 , 1 4 6 $ vXvXnXMXL.w $ q vX$ $ 8 $ q q nXnXvX$ 6 5 6 7 7 6 7 vX$ 6 nX$ $ nXnXnXMXw MXvX7 5 6 6 7 6 4 5 6 $ nX",
"w L.nXnX8 8 nXnX7 4 4 4 5 6 6 8 vXnXq MXnX$ nXvX$ nXMXnX7 vX$ nX$ $ 6 5 7 $ $ nXvX$ 7 $ $ 6 7 8 8 nXnXnXq $ 6 5 6 8 7 5 4 8 vXnX",
"w mXnXnXnXvXnXvX$ 8 7 5 6 7 6 6 7 6 8 nXq nXvX8 q w mXvX4 4 5 4 $ vXnXvXvXvX8 q q nXvXvXvX8 7 6 6 8 0 nXmXq $ 6 8 $ 7 6 5 $ $ MX",
"L.L.L.nXnX$ $ nXnXvX$ $ 8 7 6 6 6 5 5 8 nXq vXq mXL.MX8 4 1 # 1 4 8 q e nXnXnXMXq q q q nXvX8 5 5 5 8 nXnXMXnX8 8 $ $ $ bXnXMXw ",
"L.L.L.L.MXnXnX8 nXnXvX$ 6 6 5 6 8 6 4 6 vXnXnXvXmXw q 8 6 4 # # 1 6 vXMXmXmXe w MX$ nXnXvX8 6 5 4 4 5 $ 8 mXMXvXnXvX8 $ nXMXe L.",
"L.e e L.L.w MXMXvX$ 8 8 6 5 4 6 7 7 6 7 8 bXnXnXMXw q vX8 7 5 # # 6 8 nXnXL.L.w q vXvX$ 6 6 5 4 4 4 4 8 nXmXe mXMXMXMXq nXw e L.",
"L.L.L.L.L.L.L.mXq nX8 7 5 5 5 4 5 7 6 7 8 vXnXMXL.L.nXnX8 7 6 5 6 8 $ nXw L.L.mX$ vX$ 8 6 5 5 4 5 # 8 5 vXe L.w mXmXL.w w w e L."
};
