/* XPM */
static char *a3d28f66f4544d7fc9661cf55a5e0001[] = {
/* columns rows colors chars-per-pixel */
"64 64 256 2 ",
"   c black",
".  c #0000A8",
"X  c #00A800",
"o  c #00A8A8",
"O  c #A80000",
"+  c #A800A8",
"@  c #A85400",
"#  c gray66",
"$  c gray33",
"%  c #5454FC",
"&  c #54FC54",
"*  c #54FCFC",
"=  c #FC5454",
"-  c #FC54FC",
";  c #FCFC54",
":  c gray99",
">  c #ECECEC",
",  c gainsboro",
"<  c #D0D0D0",
"1  c #C0C0C0",
"2  c #B4B4B4",
"3  c gray66",
"4  c #989898",
"5  c gray55",
"6  c #7C7C7C",
"7  c gray44",
"8  c #646464",
"9  c gray33",
"0  c #484848",
"q  c gray22",
"w  c #2C2C2C",
"e  c #202020",
"r  c #FC0000",
"t  c #EC0000",
"y  c #E00000",
"u  c #D40000",
"i  c #C80000",
"p  c #BC0000",
"a  c #B00000",
"s  c #A40000",
"d  c #980000",
"f  c #880000",
"g  c #7C0000",
"h  c #700000",
"j  c #640000",
"k  c #580000",
"l  c #4C0000",
"z  c #400000",
"x  c #FCD8D8",
"c  c #FCB8B8",
"v  c #FC9C9C",
"b  c #FC7C7C",
"n  c #FC5C5C",
"m  c #FC4040",
"M  c #FC2020",
"N  c #FC0000",
"B  c #FCA85C",
"V  c #FC9840",
"C  c #FC8820",
"Z  c #FC7800",
"A  c #E46C00",
"S  c #CC6000",
"D  c #B45400",
"F  c #9C4C00",
"G  c #FCFCD8",
"H  c #FCFCB8",
"J  c #FCFC9C",
"K  c #FCFC7C",
"L  c #FCF85C",
"P  c #FCF440",
"I  c #FCF420",
"U  c #FCF400",
"Y  c #E4D800",
"T  c #CCC400",
"R  c #B4AC00",
"E  c #9C9C00",
"W  c #848400",
"Q  c #706C00",
"!  c #585400",
"~  c #404000",
"^  c #D0FC5C",
"/  c #C4FC40",
"(  c #B4FC20",
")  c #A0FC00",
"_  c #90E400",
"`  c #80CC00",
"'  c #74B400",
"]  c #609C00",
"[  c #D8FCD8",
"{  c #BCFCB8",
"}  c #9CFC9C",
"|  c #80FC7C",
" . c #60FC5C",
".. c #40FC40",
"X. c #20FC20",
"o. c #00FC00",
"O. c #00FC00",
"+. c #00EC00",
"@. c #00E000",
"#. c #00D400",
"$. c #04C800",
"%. c #04BC00",
"&. c #04B000",
"*. c #04A400",
"=. c #049800",
"-. c #048800",
";. c #047C00",
":. c #047000",
">. c #046400",
",. c #045800",
"<. c #044C00",
"1. c #044000",
"2. c #D8FCFC",
"3. c #B8FCFC",
"4. c #9CFCFC",
"5. c #7CFCF8",
"6. c #5CFCFC",
"7. c #40FCFC",
"8. c #20FCFC",
"9. c #00FCFC",
"0. c #00E4E4",
"q. c #00CCCC",
"w. c #00B4B4",
"e. c #009C9C",
"r. c #008484",
"t. c #007070",
"y. c #005858",
"u. c #004040",
"i. c #5CBCFC",
"p. c #40B0FC",
"a. c #20A8FC",
"s. c #009CFC",
"d. c #008CE4",
"f. c #007CCC",
"g. c #006CB4",
"h. c #005C9C",
"j. c #D8D8FC",
"k. c #B8BCFC",
"l. c #9C9CFC",
"z. c #7C80FC",
"x. c #5C60FC",
"c. c #4040FC",
"v. c #2024FC",
"b. c #0004FC",
"n. c #0000FC",
"m. c #0000EC",
"M. c #0000E0",
"N. c #0000D4",
"B. c #0000C8",
"V. c #0000BC",
"C. c #0000B0",
"Z. c #0000A4",
"A. c #000098",
"S. c #000088",
"D. c #00007C",
"F. c #000070",
"G. c #000064",
"H. c #000058",
"J. c #00004C",
"K. c #000040",
"L. c #282828",
"P. c #FCE034",
"I. c #FCD424",
"U. c #FCCC18",
"Y. c #FCC008",
"T. c #FCB400",
"R. c #B420FC",
"E. c #A800FC",
"W. c #9800E4",
"Q. c #8000CC",
"!. c #7400B4",
"~. c #60009C",
"^. c #500084",
"/. c #440070",
"(. c #340058",
"). c #280040",
"_. c #FCD8FC",
"`. c #FCB8FC",
"'. c #FC9CFC",
"]. c #FC7CFC",
"[. c #FC5CFC",
"{. c #FC40FC",
"}. c #FC20FC",
"|. c #FC00FC",
" X c #E000E4",
".X c #C800CC",
"XX c #B400B4",
"oX c #9C009C",
"OX c #840084",
"+X c #6C0070",
"@X c #580058",
"#X c #400040",
"$X c #FCE8DC",
"%X c #FCE0D0",
"&X c #FCD8C4",
"*X c #FCD4BC",
"=X c #FCCCB0",
"-X c #FCC4A4",
";X c #FCBC9C",
":X c #FCB890",
">X c #FCB080",
",X c #FCA470",
"<X c #FC9C60",
"1X c #F0945C",
"2X c #E88C58",
"3X c #DC8854",
"4X c #D08050",
"5X c #C87C4C",
"6X c #BC7848",
"7X c #B47044",
"8X c #A86840",
"9X c #A0643C",
"0X c #9C6038",
"qX c #905C34",
"wX c #885830",
"eX c #80502C",
"rX c #744C28",
"tX c #6C4824",
"yX c #5C4020",
"uX c #543C1C",
"iX c #483818",
"pX c #403018",
"aX c #382C14",
"sX c #28200C",
"dX c #600064",
"fX c #006464",
"gX c #006060",
"hX c #00001C",
"jX c #00002C",
"kX c #302410",
"lX c #480048",
"zX c #500050",
"xX c #000034",
"cX c gray11",
"vX c #4C4C4C",
"bX c gray36",
"nX c gray25",
"mX c gray19",
"MX c #343434",
"NX c #D8F4F4",
"BX c #B8E8E8",
"VX c #9CDCDC",
"CX c #74C8C8",
"ZX c #48C0C0",
"AX c #20B4B4",
"SX c #20B0B0",
"DX c #00A4A4",
"FX c #009898",
"GX c #008C8C",
"HX c #008484",
"JX c #007C7C",
"KX c #007878",
"LX c #007474",
"PX c #007070",
"IX c #006C6C",
"UX c #980088",
/* pixels */
"nXnXL.w w L.q w L.L.w w L.L.L.L.L.L.L.e L.cXL.w w L.L.e L.L.L.L.e e e e e L.w MXL.L.L.L.MXw MXw w L.L.L.L.MXw q w L.L.L.w L.w e ",
"L.mXMXq q q q q MXMXq q q q MXMXMXMXMXMXMXq q nXnXnXq q MXMXw L.L.L.mXmXq q q q q MXMXq q q q q q MXmXMXq nX0 0 0 nXq q q MXw L.",
"e w 7 bX7 8 bXbXvX$ $ bXbXbX$ $ vX$ $ bXbXbX8 8 7 7 8 8 bX$ 8 mXmX8 bXbX8 8 8 bX$ $ $ $ bX8 8 8 $ vXvX$ bX8 7 6 6 6 8 bXvX8 MXe ",
"e MX$ 6 6 7 8 bX8 bX8 8 vXvXvX0 0 vXbXbXbX8 8 8 bX8 6 6 6 6 8 q nX7 6 6 6 6 6 $ 0 vXvXvXvXbX8 vXvX0 vXvX8 8 8 7 7 6 7 vX6 7 MXcX",
"e MXbX7 0 0 nXnXnXnXnXnXnXnXnXq q nXnX0 nXnXnX0 nXbX6 7 nX8 0 MXnX8 6 0 8 bXvX0 nXnXnXq nXnXnXnXq q 0 nXvXvXnXvXbXbXbX0 vX$ MXcX",
"e MXbX4 vX0 nXnXnXnX0 nXq nXnXq q nXnX0 0 nX0 0 0 vXvXnXnXbX0 MXnXbX6 0 vXvXnXnXnXnXnXq q nXnXq q nXnXnXnXvX0 vX8 8 bXvXbXbXq e ",
"e MX$ 6 nXnXq q q nXnXnXq nXq q q nX0 nX0 0 0 0 nXvXvXnX0 8 vXq nXbX7 vXvX0 0 0 0 nXq q q q q mXmXq 0 0 nXnXvXbXbXbXnXnX7 8 q L.",
"L.MX$ 8 nXnXq q q q nXq q q q nX0 0 nXnXnX0 0 0 0 vXvXvXvX7 $ q nX8 6 0 bXvX0 0 0 nXq q nXnXq mXmXmXnXvX0 0 vXvXvXnXnXnX8 7 nXL.",
"L.q $ bXnXnXnXnXnXq mXmXq q q 0 vXvXq 0 nX0 0 0 nX0 vXvXbXbX$ q nX8 8 vXvXvXvXnXnX0 nXnXnXq q MXmXMXnXnXnXnXnXnXnXnXnX0 $ 8 nXq ",
"L.q bXbXnXq q nXnXq MXq nX0 0 nXvXvXnXnXnXnXnX0 0 vXbXbXvXbXvXq nXbX8 0 nXnXnXnXnX0 0 nXq nXq MXq q q mXq q nXq q nX0 vXvX8 nXL.",
"e q bX8 q mXq q nXq q 0 0 0 vX0 vXvXnXnXnXnXnX0 vXbXbXvXnXvXvXq nX$ $ 0 nXnX0 nXq nX0 nXq nXq MXq nXnXq nXq q q mX0 bXvXvXbXq L.",
"e MXbXbXnXq nXq q q nX0 vXvXvX0 vXvXq nXnXnXnXnX0 8 8 0 nXvXvXnXnXbXbXnXnXnXnXnXq nXnXnXq q q q q nXnXnXnXq nXq 0 vXbXnX0 bXq L.",
"e MXbX$ 0 0 nXq nXnX0 0 nX0 0 vXvXvXnXnXq q q nXnX8 8 vXnXbXbXq nX$ $ nXnXnX0 0 nXnXnXnXnXnXq q q nXnXq q mXq nX0 vXvXq 0 bXq e ",
"e MX$ 0 0 0 nXnXnXnXvX0 nX0 nXvXvX0 0 q q q nX0 nXvX8 vX0 vX$ nXnXbXvXq q nXnX0 nXnXnXnXnXnXq q q nXnXnXq mXq 0 vX0 nXnXnX$ q L.",
"e mXvXnXq nXnXnX0 0 nX0 nXnXnX0 nXnXnXnXq nXnXnXnXq vX8 vXbX$ nXnXbX0 q nXq q nXnXnXnXnXmXnXnXq q nXnXnXnXnX0 vXvXvX0 nX0 8 q L.",
"e mXvXnXq q nXnX0 vX0 nX0 nXnXnXnXnXnXnXnXnXnXq q mXnXbXvXbXbXq nX$ vXnXnXq nXnXnXnX0 nXmXnX0 nXnXnX0 nXnX0 vXvXnXvX0 0 vX8 nXw ",
"e mXvX0 nXnXnXnXnXvXnX0 nXnX0 nXnXnXq nXnXnXnXnXnXq q nX0 $ vXq q vXvX0 nXq q nXnXnXnXq q 0 vXnXnXnX0 0 0 vXvXvXnXnXvXvXvX8 nXw ",
"e mXvX0 nX0 q nX0 0 0 nXnXnXnXnXnXnXq nXnXnXnXnX0 q q 0 0 vXvXq q vXvXnXnXq q q nXnXnXq q nX0 nXnXnXvXvXbXvXvX0 nXnXvXnX0 bXq L.",
"e mXvXvX0 0 nXnX0 0 nXnX0 0 nX0 0 nXnXnXnXnXnX0 0 nXq vXnXbXbXq q 0 0 q nXq nXnXnXnXq q q nXnXnX0 0 0 vXvXbX8 vXnXvXvX0 0 bXq L.",
"e mXvXvX0 vX0 q nXnX0 0 vX0 0 nXnXnXq nXq nXnXnXnXnXq vX0 bXbXq q 0 nXmXq nXq q q q mXmXnXnXnXnXnXnXnXnX0 nXvXvX0 8 vX0 vX$ MXe ",
"e mXvXvXnXvXvXq nXnX0 vXvXvX0 nXnXq q nXnXnXnXnXq q nXnX0 bX8 q q 0 vXq q q nXnXnXq MXq 0 0 0 0 nXnXq q q 0 0 vX0 8 8 vXvXvXmXe ",
"e mXvX0 nXnXnXnXq nXvX8 vXvXvXnXnXnXnXnXnXnXnXnXnXnXnXnX0 $ bXnXq vXvX0 q nX0 nXq q q q nX0 bXvXvXq mXq nXvX0 nXnXvXvXvX0 vXMXe ",
"e mXvXnXq nXnXq q nXvXvXvXvX0 nXnXnXq nXq q nXnXq q 0 0 nXvXvXq nX0 0 nX0 0 nXnXq q q q q nX8 bXvXq mXmXnXnXnX0 nXnXnX0 8 $ MXL.",
"e w vXnXq nXnXnXq nXvX0 vXvXnX0 0 nXnXq 0 nXq nX0 nXnXnXvXbXvXq q vX0 nXq q q nXvXvXnXmXq nXvXnXnXq mXq nXnXnXnXnXq q nX8 bXq L.",
"e w vXvXq nX0 0 q q nX0 0 vX0 vXvX0 nXq nXnXnXq nXnXnXnXnX8 bXq nXvX0 nXnXq q nXnXq mXq q nXnXq nXnXmXq nXq nX0 nXq nXnXvX$ MXw ",
"e mXvXvXnXnXvX0 q q nX0 0 0 vXvXvXnXnXnXq q nXq nXnXnXq 0 8 vXnX0 8 bX0 0 0 nX0 nXnXnXnXq nX0 nXnXq mXnXnX0 nXvX0 q nXnX8 vXmXL.",
"e mXvXvXnX0 0 nX0 nXnX0 0 0 0 vX0 nXnXnXnXq q nXnX0 0 nXnX7 bXnX0 8 8 bXnX0 nXnXnX0 nXq nX0 0 vXvXvXq q nXnXnXnXnX0 vXbX8 8 mXmX",
"e mXvXvX0 0 nXnX0 nX0 vXvXvXvXvXvXvXnXnXnXq nXvX0 vXvX0 0 8 vXq 0 8 8 vXnX0 nXnX0 nX0 0 0 nXvX0 nXvXq q nX0 q q nXvXvXvX6 8 q w ",
"e mXvXvXnX0 nXnX0 0 0 vXvXvXvXvXbXvX0 nXnXnX0 vXvXvXvXvXvX7 0 q nXvXvXnXnXvXnXnXnXnXnX0 nXnXnXnXnXnXq q nXnXnXnXnX0 0 nX6 8 q w ",
"L.MX8 6 vXbXvXvXbXbXbXbX8 bX8 7 7 7 bXvXvXvX7 6 6 6 4 6 6 7 0 q q vX8 $ $ 8 vXvXvXvXvXvXvXvXvXvXvXvXvXvXvXvX8 8 7 6 6 6 6 bXq L.",
"L.mX7 8 0 $ bXvX$ bX$ vX$ bX$ 7 6 7 $ vX0 vX$ 6 6 7 4 7 8 bX8 mXmXbX0 vX$ vX0 0 0 nX0 bXbXvXvXbXvXvXvX0 vXvX0 vXbX8 8 bXbXvXmXe ",
"e w MXq q q q q nXnXnXnXnXnXnXvXvX0 nXq q q nXnXnX0 vXvXnXnXq w w mXq q q q mXmXmXmXq nXnXnXnXnXq q q q q mXq q 0 vXvXnXnXq mXe ",
"e w MXq q q q nXnXnXnXnXnXnX0 vXvX0 0 nXnXnXnX0 0 vX0 0 0 nXq mXmXq nXnXq q mXw mXMXq nX0 0 nXnXq q q q q q q nXvXbXbXvX0 q mXe ",
"e w 8 vX0 q 0 vXvXvXvXbXbXbXbX8 8 8 8 bX$ bXbX8 8 bX7 8 bXbX7 MXq 8 $ vX0 0 q mXq nXvX8 8 bXbXvXnX0 0 0 0 0 vXvX7 6 6 7 $ 7 MXe ",
"e mXvX8 8 8 8 8 bXbXvXbXbXbX$ bX8 8 7 bX$ bX$ 8 8 6 6 6 6 6 7 q nX7 6 8 8 7 vXq q 0 bX8 8 $ bX0 0 0 bXvX0 0 0 0 8 8 8 8 6 bXq e ",
"e mXvX8 nXnXnX0 nXnXnXnXnX0 0 vXbXbXvX0 nXnX0 0 vX0 nXnXnX6 vXq nX8 8 mXmXq mXq q nX0 nX0 0 nXnXq nXnX0 nXq q q nXnXvXvX7 bXq L.",
"e mXvX8 nXnXnXnXq nXnXnXnXnX0 8 8 0 nXnXnX0 vX0 0 nXnXnXnX8 0 q nX$ 8 mXMXmXmXq nX0 nX0 nX0 vXvX0 nXnXnXnXnXq q nXq nXnX0 bXnXq ",
"e mXvXbXq nXnXnXnXq q q q nXnX8 8 vXnX0 0 0 0 nXnXnXnXnX0 7 vXq nXvX8 nXq q mXnXnX0 nX0 0 nX0 0 0 0 0 0 nXnX0 0 q mXq nXvX8 nXq ",
"L.MX$ bXq nXnX0 0 q q q nX0 nXvX8 vX0 nXnXnX0 0 nXq q nXnX7 vXq nXvXbXnXnXq q nXnXnX0 0 vX0 0 0 0 0 nXvXnXnXnXnXq mXq nXbX8 nXw ",
"L.MX$ 7 q q 0 nXnXnXq q nXnXnXq vX8 vX0 nXnXvX0 q q nXq q 8 vXq nXvXbXnXnX0 nXnXnXnXvX0 0 0 0 0 0 vX0 vX0 nXq mXmXq q vX8 7 nXw ",
"L.MX$ 8 q q nXnXnXnXnXnXnXq q mXnXbXvX0 0 nXvXnXnXnXnXq nX8 vXq q vXvXnXnX0 nXnX0 0 0 0 0 0 nXnXvX0 nXnXnXnXq MXq nXnXvX6 6 0 w ",
"L.MX$ vXq 0 nXq q nXnXnXnXnXq q q nX0 nXnXnXnXnXnX0 nXq q vXvXq q 0 bXq nXnX0 0 vX0 0 0 nXq q nXnXnXnXnXnXnXq q q q nXvX7 6 vXL.",
"L.MX$ vXnX0 0 q q nXnXnXnXnXnXq nX0 0 nXnXnXnXnXnXnXnXq q 0 vXMXq 0 0 q nXnXq q q q q q q q q nX0 q q q q nXq MXq q q nX8 6 0 L.",
"e q bXvXnXnXnXnXnXnXnXnXnXnXnXnXnXnXnXnXq q nXq q q nXq nXvXvXmXMX0 vX0 nXnXnXnXq q q q mXmXmXq vXnXq q nXnXq mXq q nXq $ 7 0 L.",
"e q 8 8 0 0 0 0 nX0 nXnXnXnXnXnXnX0 0 nXq q nXnXq q q nXq 0 0 mXMXnXvXnXnXnXnXq q q q q mXmXmXq nXq q q q q q MXq nXq q vX7 nXL.",
"e q 8 8 vXbXnX0 nXnXnX0 nXnXnXnXnX0 vXvXq q nXnXnXq q q nXvXvXmXMX0 vXnXnXnXq q q q nXq mXmXmXq nXnX0 nXq nXnXq nXvX0 nX0 8 nXL.",
"e q 8 8 vXvXnX0 nXnX0 nX0 0 0 nXvX0 nXvXq q nXnXnXq q nXnXvX0 mXMX0 vXnXnXq q q mXq q mXmXmXq q q q 0 0 0 0 nXq nXvXvXnXvX8 nXL.",
"e MXbXvXnXnXnXvXq nX0 nXnXvX0 nXnXnXnXnXq q 0 nXq nXnXnXnXvX0 mXq 0 0 q q nXq nXq q mXmXMXq nXq MXq nXnXnXnXnXq nXvXvXnXbX8 q L.",
"e mX$ 0 q nXnXnXq q q mXq 0 0 nXnX0 nXnXnXq nXnXq nXnXnXq 0 0 mXq 0 0 q nXnXq q mXq q nXq nXnXMXmXmXq q q nXnXq nXnXnXnXvXbXq L.",
"e MX$ vXnXnXnXq mXmXw mXq nX0 0 0 0 nXq nXnXq q q mXq q q 0 0 mXq 0 0 q nXnXnXq q nXq nXnXq mXmXmXq mXmXmXq q 0 0 nXq q nX$ MXe ",
"L.q bXvXnXnXnXq mXw w mXq 0 vXvXnX0 q q q nXq q q mXmXMXq 0 0 mXq 0 0 nXnXnXq q q q q nXnXq mXmXmXq mXmXq nX0 vXvXq mXmXnXvXmXe ",
"L.q bXvXnXnXq q mXL.w mXnXvXvX0 0 nXmXq q q q q MXmXmXq q 0 0 mXq 0 vXq q nXnXnX0 nXq q nXmXmXmXnXnXMXq nXnXnXvXnXq q mXnX0 w cX",
"e q bXbXnXmXmXq mXw mXq 0 vXvXnX0 q q q 0 nXq q q MXmXq q 0 0 mXq vXvXq q nXnXnXnXnXnXMXMXMXmXq nXq MXq q q q q q 0 vXnXnXnXL.cX",
"e q 8 8 nXmXmXq mXq q nX0 nX0 0 nXnXq nXnX0 nXq q q q MXq 0 0 mXq vXvXq q q nXq q nXq mXq nXq q q q q q q mXmXq vXvX8 0 q q L.cX",
"e q 8 8 0 q mXq MXnX0 nXnX0 0 0 0 0 0 nX0 nXnXnXq nXq q q bX0 mXq vXvXnXnXq q q q nXmXmX0 0 q q MXq nXnXq mXq nXvXvXnXnXnXnXL.cX",
"e q 8 $ nXmXMXmXmXq nX0 nX0 nX0 vXvX0 nXnXnXnXnXnXnXq q q bX0 mXq vX8 nXnXq nX0 nXq mXmXnXnXq MXMXnXnXnXq q nXnXnXnXq q 0 nXL.e ",
"e q bXvXnXnXq q mXnXnX0 nX0 0 nX0 0 0 0 0 0 nXnXnXq q q q bX0 q q 0 8 nXnXnX0 vXnXq mXMXq q q MXq nXnXnXq q 0 nXnXnXq mX0 nXL.cX",
"e q bXvXq nXnXq q nXnXnX0 0 vX0 0 0 0 0 nXvXnXnXnXq q q q bX0 q q bXbXnXnXnXnXvXnXnXmXmXnXnXnXq q nXnXq nXnXnXnXnX0 q mX8 nXL.e ",
"e mXbXvXq nXnX0 nXnXnXnXvX0 0 0 0 0 0 vX0 vX0 nXnXq q q q bXvXq q 8 8 q nXnX0 vXvXnXq q nXnX0 q q nXnXq q q q q nXvXq L.bXnXL.e ",
"e mXvXvXnXnXnX0 nXnX0 0 0 0 0 0 0 0 vX0 nXnXnXnX0 q q q q bX0 q q vX8 nXnXnX0 vXvXnX0 mXmXq nXnX0 0 nX0 nXMXmXmXq nXmXw bXnXL.e ",
"e mXvX0 bX0 vXbXbXbX8 bXbXbXvXbXvXvX$ $ vXvX8 8 7 8 7 7 7 6 0 q q vX6 8 8 8 $ 8 vXvX$ nX0 bXbXvX$ $ vXvXvX0 q nXvX7 8 bX6 nXw e ",
"L.mXbX$ bXbX$ bXbX8 bXbXbXbXbXbXbX8 8 8 8 8 8 8 8 bX8 vXvX$ 7 mXq bX8 8 8 8 8 8 8 8 8 8 8 8 8 8 8 8 bXbX$ $ $ $ vXvXvXvXvXbXL.cX",
"L.w mXq q q q q q q q mXmXmXmXmXq q nXnXnXnXnXnXq MXmXmXmXMXmXw w MXq nXnXq q q q q nXnXnXnXnXnXnXq q q q MXMXMXMXMXmXmXMXmXL.cX",
"e e e e e e L.L.L.e e e e e e e e L.L.w w w L.L.e e e e e e e e e e L.L.L.L.e e e e L.L.w w w w L.L.e e L.L.L.L.L.e e e L.L.L.e "
};
